<svg version="1" xmlns="http://www.w3.org/2000/svg" width="682.667" height="682.667" viewBox="0 0 512.000000 512.000000"><path d="M83.5 87.7C66.7 90 48.9 99.2 36.2 112.2c-10.3 10.5-16.3 20.6-20.9 35.5l-2.8 8.8-.3 83.6-.3 83.7-3.6 3.8C2.6 333.7.6 339.2.6 348.5c0 9.2 2 14.3 8.3 20.8 7.4 7.9 8.7 8.2 35.2 8.5l23.6.3 1.7 6.2C76 408.1 98.2 425 123 425c25.1 0 47.9-17.7 54.1-41.9l1.3-5.1h155.2l1.3 5.1c6.2 24.2 29 41.9 54.1 41.9 24.8 0 47-16.9 53.6-40.7l1.7-6.2 23.6-.3c26.5-.3 27.8-.6 35.2-8.5 6.3-6.5 8.3-11.6 8.3-20.8 0-9.4-2-14.8-7.7-20.9l-3.7-3.9v-94.2c0-90.7-.1-94.5-2-101.9-2.6-10.2-6.9-17.7-14.6-25.3-6.9-6.8-17.1-12.3-26.2-14.2-3.7-.8-58.8-1.1-188-1-100.5.1-184 .4-185.7.6zm377.7 21.1c7.3 3.6 13.8 10 16.9 16.7 3.1 6.7 3.5 6.5-13.3 6.5-14 0-15.6.2-19.3 2.3-2.1 1.2-5.3 4.2-7 6.5l-3 4.4-.3 42.2-.3 42.2 2.4 4.4c1.3 2.5 4.3 5.8 6.6 7.5 4.2 3 4.4 3 20.9 3.5l16.7.5.3 36.2.2 36.3h-35c-33.3 0-35.4-.1-41.3-2.2-9.4-3.2-24.7-3-34.5.4-9 3.2-15.2 7.2-21.9 14-6.7 6.8-11.6 15.2-13.8 23.3l-1.8 6.5H178.3l-1.8-6.5c-2.2-8.1-7.1-16.5-13.8-23.3-6.7-6.8-12.9-10.8-21.9-14-9.8-3.4-25.1-3.6-34.5-.4-5.9 2.1-8 2.2-41.3 2.2H29.9l.3-78.8c.4-87.4.1-83.1 7.3-97.7 8.1-16.7 26.3-31 43.5-34.4 3-.6 6.4-1.3 7.5-1.5 1.1-.2 83.9-.3 184-.2l182 .1 6.7 3.3zm20.8 79.7v38.6l-14.2-.3-14.3-.3-.3-37c-.1-20.3 0-37.6.3-38.2.3-1 4.1-1.3 14.5-1.3h14v38.5zM139.2 335.3c6.6 3.2 15.1 11.9 17.9 18.1 8.5 19.4.4 40.8-18.9 49.9-5.9 2.7-7.8 3.1-15.2 3.1-7.4 0-9.3-.4-15.2-3.1-19.1-8.9-27.4-30.7-18.9-49.7 3.8-8.6 14-17.4 24.1-20.7 1.4-.5 6.6-.7 11.6-.6 7.4.2 10 .7 14.6 3zm266.1.2c6.8 3.4 15 11.7 17.8 18 8.5 19.1.2 40.8-18.9 49.8-5.9 2.7-7.8 3.1-15.2 3.1-7.4 0-9.3-.4-15.2-3.1-23.7-11.1-29.8-40.5-12.2-59.3 8.8-9.4 15.5-12.1 28.9-11.7 7.5.3 10 .8 14.8 3.2zm-331.2 6.7c-1.7 2.9-3.8 8.1-4.7 11.5l-1.7 6.3H25.8l-3.4-3.4c-3-3-3.4-4-3.4-8.4 0-4.3.5-5.5 3.1-8.1l3.1-3.1H77l-2.9 5.2zm415.8-2.1c2.6 2.6 3.1 3.8 3.1 8.1 0 4.4-.4 5.4-3.4 8.4l-3.4 3.4h-41.9l-1.7-6.3c-.9-3.4-3-8.6-4.7-11.5L435 337h51.8l3.1 3.1z"/><path d="M83.7 134.1C72.3 138 63.2 145.8 58 156.2c-4.6 9.4-5.1 13.9-4.8 45.5l.3 29 3 4.8c2 3.2 4.5 5.6 7.4 7.2l4.4 2.3 162.7-.2 162.7-.3 4-2.8c2.2-1.5 5-4.6 6.4-7l2.4-4.2v-84.2l-3-4.8c-2-3.2-4.5-5.6-7.4-7.2l-4.4-2.3H240.6c-148.6.1-151.2.1-156.9 2.1zm45.3 54.4V227h-28.4c-25 0-28.5-.2-29-1.6-1.3-3.3-.6-49.8.7-55.2 2.4-9 8.2-15.4 17.2-18.9 1.9-.7 9.9-1.2 21.3-1.2l18.2-.1v38.5zm92 0V227h-74v-77h74v38.5zm92 0V227h-74v-77h74v38.5zm75.4-36.9c.8 2 .8 71.8 0 73.8-.5 1.4-4 1.6-29 1.6H331v-77h28.4c25 0 28.5.2 29 1.6zM454.5 279.5c-2.2 2.2-2.5 3.2-2.5 10.5s.3 8.3 2.5 10.5c1.7 1.8 3.5 2.5 6.2 2.5 6.8-.1 9.3-3.7 9.3-13.5 0-6-.3-6.9-2.9-9.6-3.8-3.8-9.1-4-12.6-.4zM114.2 345.3c-4.6 1.4-12.1 8.4-14.3 13.2-1.2 2.5-1.9 6.4-1.9 10.3 0 10.5 4.2 17.8 13.1 22.7 13.3 7.2 29.5 1.3 35.5-13 2.1-5.1 2-13.9-.1-19.3-2.1-5.2-10.3-12.8-15.3-14.2-4.6-1.2-12.7-1.1-17 .3zm13.5 18.9c4.6 4.3 1.6 11.8-4.7 11.8-6.2 0-9.2-7.1-4.8-11.7 2.7-2.9 6.5-2.9 9.5-.1zM380.4 345.1c-4.7 1.3-12.9 9.2-14.9 14.1-.9 2.4-1.7 6.8-1.7 9.8 0 9.9 4.6 17.7 13.3 22.5 13.2 7.2 29.5 1.3 35.4-12.8 2.1-5 1.9-15.2-.4-20.2-2.3-5.1-9.8-11.8-14.9-13.3-4.5-1.4-12.3-1.4-16.8-.1zm13.3 19.1c4.6 4.3 1.6 11.8-4.7 11.8-6.2 0-9.2-7.1-4.8-11.7 2.7-2.9 6.5-2.9 9.5-.1z"/></svg>